<svg width="171" height="140" viewBox="0 0 171 140" fill="none" xmlns="http://www.w3.org/2000/svg">
<ellipse cx="85.5" cy="135" rx="85.5" ry="5" fill="#F5F5F5"/>
<path d="M134.269 67.5854H134.111C122.367 66.6252 114.273 56.5746 113.947 56.1694C113.322 55.3158 113.484 54.1216 114.313 53.4646C115.143 52.8076 116.343 52.9226 117.033 53.725C117.125 53.8439 124.042 62.3619 133.621 63.5775C136.707 60.4944 139.352 52.3553 139.057 49.8933C139.057 49.8668 139.057 49.8448 139.057 49.8228C138.995 49.03 138.845 46.2994 139.625 44.6918C140.158 43.8358 141.251 43.5198 142.159 43.9596C143.067 44.3994 143.495 45.4529 143.152 46.4007C142.958 46.8059 142.866 48.2637 142.958 49.4837C143.399 53.5356 139.872 63.7624 135.464 67.1846C135.12 67.4452 134.701 67.586 134.269 67.5854Z" fill="#263238"/>
<path d="M40.9097 56.9137C32.7063 56.8145 24.9285 53.2492 19.5029 47.1009C18.8782 46.4055 18.8303 45.3667 19.3883 44.6169C22.5711 40.3403 28.2049 30.2412 29.0866 26.9512C28.6683 26.1578 28.0361 25.4972 27.2616 25.0441C26.6313 24.7507 26.2036 24.1458 26.1374 23.4542L25.82 20.2302C25.7561 19.1742 26.5391 18.2565 27.5929 18.1523C28.6467 18.0481 29.5945 18.7946 29.739 19.8427L29.9595 22.0844C31.2626 23.0843 32.2946 24.3939 32.9615 25.8942C33.0938 26.2082 33.1424 26.5511 33.1026 26.8895C32.697 30.3822 27.0235 40.4989 23.5321 45.6123C31.6831 53.7294 41.4255 52.9895 41.8531 52.9498C42.9214 52.8759 43.8533 53.6679 43.9515 54.7332C44.0498 55.7986 43.2784 56.7473 42.2146 56.8697C42.1 56.8785 41.6459 56.9137 40.9097 56.9137Z" fill="#263238"/>
<path d="M104.412 134.989H99.1218C98.5064 134.989 97.9263 134.702 97.5535 134.213C97.1807 133.724 97.058 133.089 97.2218 132.496C98.6016 127.546 99.2805 123.516 99.7874 117.209C97.9183 108.4 96.1594 100.38 96.1418 100.301C95.943 99.2536 96.6145 98.2385 97.6566 98.0107C98.6988 97.7829 99.7331 98.4251 99.9902 99.4595C99.9902 99.5388 101.806 107.766 103.698 116.672C103.738 116.857 103.75 117.047 103.733 117.235C103.292 122.899 102.715 126.815 101.674 131.056H104.399C105.449 131.106 106.276 131.971 106.276 133.023C106.276 134.074 105.449 134.939 104.399 134.989H104.412Z" fill="#263238"/>
<path d="M63.6126 134.989H60.6326C60.0627 134.991 59.5202 134.745 59.1461 134.316C58.772 133.886 58.6034 133.315 58.6841 132.752C59.191 129.14 61.7699 122.564 64.5472 115.954C65.5302 107.233 66.3325 99.7457 66.3413 99.6577C66.4006 98.9429 66.8443 98.317 67.4993 98.0237C68.1544 97.7304 68.9173 97.8163 69.4907 98.2477C70.064 98.6792 70.3572 99.3881 70.2559 100.098C70.2559 100.173 69.4272 107.832 68.4265 116.68C68.4061 116.865 68.3586 117.046 68.2854 117.218C66.3325 121.899 64.1019 127.414 63.0836 131.065H63.6126C64.338 131.03 65.0235 131.398 65.3965 132.02C65.7695 132.643 65.7695 133.42 65.3965 134.042C65.0235 134.665 64.338 135.032 63.6126 134.998V134.989Z" fill="#263238"/>
<path fill-rule="evenodd" clip-rule="evenodd" d="M42.3777 103.736H118.271C118.379 103.736 118.482 103.689 118.554 103.608C118.628 103.532 118.668 103.429 118.664 103.322C117.081 65.6389 117.081 32.0472 118.664 0.626896C118.671 0.519453 118.633 0.41395 118.558 0.336212C118.483 0.257735 118.38 0.213178 118.271 0.212891H65.3275C65.2234 0.212734 65.1234 0.253928 65.0497 0.327404L42.1 23.2606C42.0294 23.3295 41.9869 23.4221 41.981 23.5205C40.8833 47.7442 40.8833 74.6104 41.981 103.357C41.9904 103.569 42.1653 103.736 42.3777 103.736ZM117.862 102.948H42.7524C41.6724 74.4299 41.6724 47.775 42.7524 23.7099L65.4906 1.00126H117.862C116.297 32.219 116.301 65.5728 117.862 102.948Z" fill="#263238"/>
<path d="M104.663 92.43H96.3842C96.2211 92.43 96.0889 92.2979 96.0889 92.135C96.0889 92.0571 96.1201 91.9825 96.1756 91.9278C96.2312 91.8732 96.3063 91.8431 96.3842 91.8443H104.663C104.741 91.8431 104.816 91.8732 104.872 91.9278C104.927 91.9825 104.958 92.0571 104.958 92.135C104.958 92.2132 104.927 92.2883 104.872 92.3436C104.817 92.399 104.741 92.43 104.663 92.43Z" fill="#1AA99C"/>
<path d="M92.9545 92.43H55.9775C55.8144 92.43 55.6821 92.2979 55.6821 92.135C55.6821 92.0571 55.7134 91.9825 55.7689 91.9278C55.8244 91.8732 55.8996 91.8431 55.9775 91.8443H92.9457C93.0236 91.8431 93.0988 91.8732 93.1543 91.9278C93.2098 91.9825 93.2411 92.0571 93.2411 92.135C93.2411 92.2946 93.1142 92.4253 92.9545 92.43Z" fill="#1AA99C"/>
<path d="M69.7667 48.2682C69.6786 46.348 68.5897 44.8329 67.3289 44.8769C66.0682 44.921 65.1248 46.5109 65.2041 48.4312C65.2835 50.3515 66.3811 51.8665 67.6419 51.8181C68.9027 51.7697 69.8549 50.1841 69.7667 48.2682Z" fill="#1AA99C"/>
<path d="M96.3798 47.6647C96.2916 45.7488 95.2028 44.2337 93.942 44.2778C92.6812 44.3218 91.7378 45.9118 91.8172 47.8321C91.8965 49.7523 92.9986 51.2674 94.255 51.219C95.5113 51.1705 96.4679 49.585 96.3798 47.6647Z" fill="#1AA99C"/>
<path d="M76.41 56.1122C80.5196 54.5785 85.0774 54.7853 89.031 56.6848C89.1621 56.7571 89.2587 56.8789 89.2993 57.0229C89.3399 57.1669 89.3211 57.3211 89.247 57.4511C89.0913 57.7205 88.7487 57.8164 88.4756 57.667C88.4094 57.6317 82.1276 54.2492 74.629 58.1074C74.351 58.2478 74.0116 58.1426 73.862 57.8696C73.7927 57.7371 73.7794 57.5825 73.8249 57.4402C73.8705 57.2979 73.9711 57.1797 74.1044 57.112C74.8492 56.7266 75.6195 56.3926 76.41 56.1122Z" fill="#1AA99C"/>
<path d="M65.958 30.2765C66.1535 30.2819 66.3445 30.3364 66.5134 30.4351C67.0497 30.7523 67.2306 31.4417 66.919 31.981C65.1384 35.1513 61.9214 37.254 58.3007 37.6141C57.6765 37.6391 57.1481 37.1582 57.1149 36.535C57.1017 36.2371 57.2077 35.9462 57.4095 35.7264C57.6113 35.5066 57.8923 35.3761 58.1905 35.3635C58.3624 35.3635 62.4313 35.108 64.9617 30.8403C65.1638 30.4827 65.5471 30.2658 65.958 30.2765Z" fill="#1AA99C"/>
<path d="M92.5885 29.6291C92.9625 29.5554 93.3485 29.6746 93.6157 29.9462C97.1423 33.4696 101.172 32.7605 101.339 32.7297C101.945 32.6206 102.529 33.0096 102.662 33.6106C102.721 33.9027 102.662 34.2065 102.496 34.4546C102.331 34.7027 102.073 34.8745 101.78 34.9318C101.559 34.9715 96.4282 35.9492 91.989 31.5185C91.6936 31.2263 91.5845 30.7947 91.7056 30.3974C91.8268 30.0002 92.1582 29.7026 92.5665 29.6247L92.5885 29.6291Z" fill="#1AA99C"/>
<path opacity="0.2" d="M117.13 41.9567L113.907 42.2562C112.754 42.3638 111.7 41.5978 111.448 40.468L106.982 20.4813C106.714 19.2752 107.448 18.0732 108.644 17.7594L117.28 15.4956L117.13 41.9567Z" fill="black"/>
<path opacity="0.2" d="M67.4391 25.586C65.1952 19.4684 62.9514 9.6776 65.3186 0.609131L42.3689 23.5424C48.8624 25.7225 59.2043 26.6518 67.4391 25.586Z" fill="black"/>
<path d="M65.3274 23.5424C62.8103 16.1167 63.8374 6.02202 65.3274 0.609131L42.3777 23.5424C49.3252 24.8064 57.0883 24.6038 65.3274 23.5424Z" fill="white"/>
<path fill-rule="evenodd" clip-rule="evenodd" d="M42.3116 23.9257C45.8044 24.538 49.3455 24.8329 52.8916 24.8065C57.0719 24.7816 61.2464 24.4888 65.3892 23.9301C65.506 23.9163 65.61 23.8497 65.6713 23.7495C65.732 23.6488 65.7465 23.5269 65.711 23.4148C63.1762 15.9539 64.3268 5.75351 65.711 0.714982C65.7607 0.542596 65.6868 0.358537 65.5318 0.268088C65.3767 0.17764 65.18 0.203883 65.0542 0.331807L42.1044 23.265C41.9992 23.367 41.9605 23.5194 42.0043 23.6591C42.0481 23.7988 42.167 23.9019 42.3116 23.9257ZM64.7941 23.2122C56.3786 24.2692 49.2944 24.2912 43.1933 23.2827L64.5825 1.89534C63.1894 7.92483 62.7178 16.6321 64.7941 23.2122Z" fill="#263238"/>
<path d="M144.188 57.0415C143.89 57.0413 143.629 56.8406 143.553 56.5526L135.468 25.7753C135.376 25.4238 135.586 25.0639 135.938 24.9715C136.29 24.8791 136.65 25.0891 136.742 25.4406L144.827 56.2179C144.871 56.3867 144.847 56.5661 144.758 56.7165C144.669 56.8669 144.525 56.9759 144.356 57.0194C144.301 57.0357 144.245 57.0431 144.188 57.0415Z" fill="#263238"/>
<path d="M158.819 12.9406L159.247 12.8305L159.854 15.1845L159.426 15.2946L158.819 12.9406Z" fill="#407BFF"/>
<path d="M157.858 9.46622L156.161 3.0051C155.68 1.18385 153.815 0.0945913 151.991 0.569522L147.552 1.73226L147.441 1.29183L151.881 0.124687C153.938 -0.408985 156.041 0.819474 156.584 2.87298L158.286 9.3385L157.858 9.46622Z" fill="#407BFF"/>
<path d="M109.341 18.319C108.605 15.519 110.28 12.6534 113.08 11.9194L149.442 2.38876C152.241 1.65526 155.104 3.32852 155.839 6.12672L159.669 20.712C160.404 23.5119 158.729 26.3776 155.929 27.1116L119.567 36.6422C116.769 37.3757 113.905 35.7024 113.171 32.9042L109.341 18.319Z" fill="#B61A1A"/>
<path d="M122.818 24.0428L123.121 25.173L118.409 26.4355L116.778 20.3502L121.377 19.1179L121.68 20.2481L118.481 21.1053L118.835 22.4267L121.66 21.6696L121.954 22.765L119.128 23.522L119.506 24.9303L122.818 24.0428Z" fill="white"/>
<path d="M128.891 23.6268L127.263 22.246L127.194 22.2647L125.968 22.5931L126.422 24.2883L125.014 24.6657L123.384 18.5803L126.018 17.8745C126.557 17.7301 127.047 17.6949 127.489 17.769C127.937 17.8415 128.313 18.0142 128.616 18.2871C128.919 18.56 129.131 18.9225 129.252 19.3745C129.373 19.8266 129.368 20.2473 129.236 20.6366C129.109 21.0186 128.868 21.3502 128.515 21.6312L130.404 23.2215L128.891 23.6268ZM127.826 19.7565C127.735 19.4146 127.555 19.1833 127.286 19.0627C127.016 18.9362 126.67 18.9297 126.247 19.043L125.099 19.3505L125.668 21.4717L126.815 21.1642C127.238 21.0508 127.535 20.8719 127.706 20.6275C127.876 20.383 127.916 20.0927 127.826 19.7565Z" fill="white"/>
<path d="M136.057 21.7068L134.429 20.3261L134.359 20.3447L133.134 20.6732L133.588 22.3684L132.179 22.7457L130.549 16.6604L133.183 15.9546C133.722 15.8102 134.213 15.775 134.655 15.849C135.103 15.9216 135.478 16.0943 135.781 16.3671C136.084 16.64 136.296 17.0025 136.417 17.4546C136.539 17.9066 136.533 18.3273 136.402 18.7167C136.274 19.0987 136.034 19.4302 135.68 19.7112L137.569 21.3015L136.057 21.7068ZM134.992 17.8366C134.9 17.4946 134.72 17.2633 134.452 17.1427C134.182 17.0162 133.835 17.0097 133.412 17.1231L132.265 17.4305L132.833 19.5517L133.981 19.2442C134.404 19.1309 134.7 18.952 134.871 18.7075C135.042 18.463 135.082 18.1727 134.992 17.8366Z" fill="white"/>
<path d="M142.32 20.1404C141.688 20.3097 141.081 20.3264 140.498 20.1907C139.921 20.0534 139.423 19.786 139.006 19.3884C138.593 18.9835 138.307 18.4825 138.147 17.8856C137.987 17.2886 137.985 16.7145 138.142 16.1632C138.303 15.6045 138.599 15.1214 139.03 14.7139C139.467 14.3049 140.002 14.0157 140.633 13.8464C141.265 13.6772 141.87 13.6612 142.447 13.7985C143.024 13.9358 143.522 14.2061 143.941 14.6095C144.358 15.0071 144.646 15.5043 144.806 16.1013C144.966 16.6982 144.966 17.276 144.805 17.8347C144.642 18.3876 144.346 18.8678 143.914 19.2753C143.483 19.6828 142.952 19.9711 142.32 20.1404ZM141.998 18.9407C142.358 18.8445 142.661 18.6764 142.907 18.4364C143.152 18.1907 143.316 17.8983 143.399 17.5593C143.487 17.2187 143.481 16.86 143.38 16.4833C143.28 16.1066 143.105 15.793 142.858 15.5424C142.617 15.2903 142.329 15.122 141.996 15.0373C141.661 14.9469 141.314 14.9498 140.955 15.0461C140.596 15.1424 140.293 15.3134 140.049 15.5591C139.802 15.799 139.635 16.0893 139.546 16.4299C139.463 16.769 139.472 17.1268 139.573 17.5036C139.674 17.8803 139.845 18.1947 140.086 18.4468C140.334 18.6973 140.625 18.8678 140.96 18.9582C141.293 19.0428 141.639 19.037 141.998 18.9407Z" fill="white"/>
<path d="M151.33 17.6144L149.702 16.2337L149.632 16.2523L148.407 16.5807L148.861 18.2759L147.453 18.6533L145.822 12.568L148.456 11.8622C148.995 11.7177 149.486 11.6826 149.928 11.7566C150.376 11.8291 150.752 12.0018 151.054 12.2747C151.357 12.5476 151.569 12.9101 151.691 13.3621C151.812 13.8142 151.806 14.2349 151.675 14.6242C151.547 15.0063 151.307 15.3378 150.954 15.6188L152.842 17.2091L151.33 17.6144ZM150.265 13.7442C150.173 13.4022 149.993 13.1709 149.725 13.0503C149.455 12.9238 149.108 12.9173 148.685 13.0306L147.538 13.3381L148.106 15.4593L149.254 15.1518C149.677 15.0385 149.974 14.8595 150.144 14.6151C150.315 14.3706 150.355 14.0803 150.265 13.7442Z" fill="white"/>
</svg>
