<svg width="18" height="18" viewBox="0 0 18 18" fill="none" xmlns="http://www.w3.org/2000/svg">
<path fill-rule="evenodd" clip-rule="evenodd" d="M16.3116 12.4868V14.7964C16.3134 15.23 16.1323 15.6442 15.8128 15.9373C15.4933 16.2304 15.0651 16.3752 14.6332 16.3362C12.2642 16.0788 9.98852 15.2693 7.98913 13.9727C6.12895 12.7906 4.55184 11.2135 3.36981 9.35335C2.06868 7.34487 1.25896 5.05814 1.00625 2.67843C0.967355 2.24796 1.11117 1.82097 1.40257 1.50175C1.69396 1.18253 2.10611 1.00048 2.53833 1.00008H4.84799C5.62085 0.992469 6.27959 1.55899 6.38776 2.32428C6.48525 3.06342 6.66604 3.78916 6.92668 4.48766C7.1382 5.05035 7.00291 5.68469 6.58023 6.11212L5.60248 7.08988C6.69845 9.01733 8.29435 10.6132 10.2218 11.7092L11.1996 10.7314C11.627 10.3088 12.2613 10.1735 12.824 10.385C13.5225 10.6456 14.2483 10.8264 14.9874 10.9239C15.7616 11.0331 16.331 11.7052 16.3116 12.4868Z" fill="#1AA99C" stroke="#1AA99C" stroke-width="1.6" stroke-linecap="round" stroke-linejoin="round"/>
</svg>
