<svg width="15" height="16" viewBox="0 0 15 16" fill="none" xmlns="http://www.w3.org/2000/svg">
<circle cx="11.5" cy="3.5" r="3.5" fill="#FF8462"/>
<path fill-rule="evenodd" clip-rule="evenodd" d="M13.3809 11.2362V13.0933C13.3823 13.4419 13.2367 13.775 12.9798 14.0107C12.7229 14.2464 12.3786 14.3628 12.0314 14.3314C10.1265 14.1244 8.29667 13.4735 6.689 12.431C5.19328 11.4805 3.92517 10.2124 2.97472 8.71667C1.92851 7.1017 1.27744 5.263 1.07424 3.34952C1.04296 3.0034 1.1586 2.66006 1.39291 2.40338C1.62721 2.14671 1.95861 2.00033 2.30615 2H4.16329C4.78473 1.99388 5.31441 2.44941 5.40139 3.06476C5.47977 3.65909 5.62514 4.24264 5.83472 4.80429C6.00479 5.25673 5.89601 5.76678 5.55615 6.11048L4.76996 6.89667C5.65121 8.44648 6.93443 9.7297 8.48424 10.611L9.27043 9.82476C9.61412 9.4849 10.1242 9.37612 10.5766 9.54619C11.1383 9.75577 11.7218 9.90114 12.3161 9.97952C12.9386 10.0673 13.3965 10.6077 13.3809 11.2362Z" stroke="black" stroke-width="2" stroke-linecap="round" stroke-linejoin="round"/>
</svg>
