<svg width="20" height="22" viewBox="0 0 20 22" fill="none" xmlns="http://www.w3.org/2000/svg">
<g id="Document">
<g id="Stroke 4">
<mask id="path-1-outside-1_970_5985" maskUnits="userSpaceOnUse" x="0" y="0" width="20" height="22" fill="black">
<rect fill="white" width="20" height="22"/>
<path fill-rule="evenodd" clip-rule="evenodd" d="M1 11C1 3.61236 3.36972 1 10.119 1C16.8689 1 19.2379 3.61192 19.2379 11L19.2362 11.3428C19.1628 18.4691 16.7634 21 10.119 21C3.36972 21 1 18.3876 1 11ZM18.0518 8.04584C17.4787 3.52508 15.2854 2.02564 10.119 2.02564L9.82424 2.02731C4.86935 2.08444 2.74842 3.61234 2.1862 8.046L2.12717 8.5811C2.11851 8.67254 2.11042 8.76513 2.10291 8.85886L2.06458 9.43515L2.03949 10.0396C2.03018 10.3489 2.02565 10.6689 2.02565 11L2.02717 11.3274C2.0292 11.5433 2.03328 11.7542 2.03949 11.9604L2.06458 12.5648L2.10291 13.1411C2.11042 13.2349 2.11851 13.3275 2.12717 13.4189L2.1862 13.954C2.75945 18.4746 4.95312 19.9744 10.119 19.9744C15.2854 19.9744 17.4787 18.4749 18.0518 13.9542L18.1108 13.419L18.1559 12.8566C18.1623 12.7605 18.1681 12.6633 18.1734 12.5649L18.1985 11.9605C18.2078 11.6512 18.2123 11.3311 18.2123 11L18.2108 10.6726C18.2088 10.4567 18.2047 10.2457 18.1985 10.0395L18.1734 9.43506C18.1681 9.33668 18.1623 9.23947 18.1559 9.14342L18.1108 8.58096L18.0518 8.04584Z"/>
</mask>
<path fill-rule="evenodd" clip-rule="evenodd" d="M1 11C1 3.61236 3.36972 1 10.119 1C16.8689 1 19.2379 3.61192 19.2379 11L19.2362 11.3428C19.1628 18.4691 16.7634 21 10.119 21C3.36972 21 1 18.3876 1 11ZM18.0518 8.04584C17.4787 3.52508 15.2854 2.02564 10.119 2.02564L9.82424 2.02731C4.86935 2.08444 2.74842 3.61234 2.1862 8.046L2.12717 8.5811C2.11851 8.67254 2.11042 8.76513 2.10291 8.85886L2.06458 9.43515L2.03949 10.0396C2.03018 10.3489 2.02565 10.6689 2.02565 11L2.02717 11.3274C2.0292 11.5433 2.03328 11.7542 2.03949 11.9604L2.06458 12.5648L2.10291 13.1411C2.11042 13.2349 2.11851 13.3275 2.12717 13.4189L2.1862 13.954C2.75945 18.4746 4.95312 19.9744 10.119 19.9744C15.2854 19.9744 17.4787 18.4749 18.0518 13.9542L18.1108 13.419L18.1559 12.8566C18.1623 12.7605 18.1681 12.6633 18.1734 12.5649L18.1985 11.9605C18.2078 11.6512 18.2123 11.3311 18.2123 11L18.2108 10.6726C18.2088 10.4567 18.2047 10.2457 18.1985 10.0395L18.1734 9.43506C18.1681 9.33668 18.1623 9.23947 18.1559 9.14342L18.1108 8.58096L18.0518 8.04584Z" fill="#1AA99C"/>
<path d="M19.2379 11L19.6379 11.002V11H19.2379ZM19.2362 11.3428L19.6362 11.3469L19.6362 11.3449L19.2362 11.3428ZM10.119 2.02564L10.119 1.62563L10.1167 1.62565L10.119 2.02564ZM18.0518 8.04584L18.4494 8.00199L18.4486 7.99553L18.0518 8.04584ZM9.82424 2.02731L9.82197 1.62731L9.81963 1.62734L9.82424 2.02731ZM2.1862 8.046L1.78933 7.99567L1.78861 8.00214L2.1862 8.046ZM2.12717 8.5811L1.72954 8.53723L1.72895 8.54336L2.12717 8.5811ZM2.10291 8.85886L1.70415 8.8269L1.70379 8.83232L2.10291 8.85886ZM2.06458 9.43515L1.66534 9.40861L1.66493 9.41856L2.06458 9.43515ZM2.03949 10.0396L1.63981 10.023L1.63967 10.0275L2.03949 10.0396ZM2.02565 11L1.62564 11L1.62565 11.0019L2.02565 11ZM2.02717 11.3274L1.62717 11.3293L1.62718 11.3312L2.02717 11.3274ZM2.03949 11.9604L1.63965 11.9725L1.63984 11.977L2.03949 11.9604ZM2.06458 12.5648L1.6648 12.5814L1.66547 12.5914L2.06458 12.5648ZM2.10291 13.1411L1.70375 13.1677L1.70418 13.1731L2.10291 13.1411ZM2.12717 13.4189L1.72891 13.4566L1.72958 13.4628L2.12717 13.4189ZM2.1862 13.954L1.78856 13.9979L1.78938 14.0043L2.1862 13.954ZM18.0518 13.9542L18.4487 14.0045L18.4494 13.998L18.0518 13.9542ZM18.1108 13.419L18.5086 13.4629L18.5095 13.451L18.1108 13.419ZM18.1559 12.8566L18.5547 12.8886L18.555 12.8831L18.1559 12.8566ZM18.1734 12.5649L18.5728 12.5863L18.573 12.5815L18.1734 12.5649ZM18.1985 11.9605L18.5982 11.9771L18.5983 11.9725L18.1985 11.9605ZM18.2123 11L18.6123 11L18.6123 10.9981L18.2123 11ZM18.2108 10.6726L18.6108 10.6707L18.6108 10.6688L18.2108 10.6726ZM18.1985 10.0395L18.5983 10.0275L18.5981 10.0229L18.1985 10.0395ZM18.1734 9.43506L18.5731 9.41847L18.5728 9.41366L18.1734 9.43506ZM18.1559 9.14342L18.5551 9.1169L18.5546 9.11145L18.1559 9.14342ZM18.1108 8.58096L18.5097 8.54898L18.5084 8.53711L18.1108 8.58096ZM10.119 0.6C6.70927 0.6 4.2846 1.2567 2.73281 2.96027C1.19079 4.65311 0.6 7.28529 0.6 11H1.4C1.4 7.32708 1.99407 4.95925 3.32423 3.499C4.6446 2.04948 6.77943 1.4 10.119 1.4V0.6ZM19.6379 11C19.6379 7.28509 19.0473 4.6529 17.5054 2.96011C15.9537 1.25658 13.529 0.6 10.119 0.6V1.4C13.4589 1.4 15.5937 2.04938 16.914 3.49883C18.244 4.95902 18.8379 7.32683 18.8379 11H19.6379ZM19.6362 11.3449L19.6379 11.002L18.838 10.998L18.8362 11.3408L19.6362 11.3449ZM10.119 21.4C13.4756 21.4 15.8777 20.7639 17.4325 19.1185C18.9802 17.4805 19.5993 14.9342 19.6362 11.3469L18.8362 11.3387C18.7998 14.8777 18.1824 17.16 16.851 18.569C15.5266 19.9706 13.4067 20.6 10.119 20.6V21.4ZM0.6 11C0.6 14.7147 1.19079 17.3469 2.73281 19.0397C4.2846 20.7433 6.70927 21.4 10.119 21.4V20.6C6.77943 20.6 4.6446 19.9505 3.32423 18.501C1.99407 17.0407 1.4 14.6729 1.4 11H0.6ZM10.119 2.42564C12.6798 2.42564 14.4103 2.8009 15.5694 3.66159C16.7112 4.50949 17.3751 5.8884 17.655 8.09615L18.4486 7.99553C18.1554 5.68252 17.4361 4.05133 16.0463 3.01932C14.6738 2.0001 12.7245 1.62564 10.119 1.62564V2.42564ZM9.82651 2.42731L10.1213 2.42563L10.1167 1.62565L9.82197 1.62732L9.82651 2.42731ZM2.58302 8.09632C2.85764 5.93069 3.50192 4.56308 4.60266 3.71188C5.71728 2.84995 7.37697 2.45556 9.82885 2.42729L9.81963 1.62734C7.31662 1.6562 5.4384 2.05432 4.11328 3.07903C2.77427 4.11448 2.07698 5.72765 1.78938 7.99568L2.58302 8.09632ZM2.52476 8.62496L2.58379 8.08986L1.78861 8.00214L1.72958 8.53724L2.52476 8.62496ZM2.50163 8.89083C2.50899 8.79896 2.51691 8.7083 2.52539 8.61883L1.72895 8.54336C1.7201 8.63679 1.71185 8.7313 1.70418 8.8269L2.50163 8.89083ZM2.4637 9.46169L2.50202 8.8854L1.70379 8.83232L1.66547 9.40862L2.4637 9.46169ZM2.43915 10.0561L2.46424 9.45175L1.66493 9.41856L1.63984 10.023L2.43915 10.0561ZM2.42565 11C2.42565 10.6725 2.43013 10.3565 2.43931 10.0516L1.63967 10.0275C1.63023 10.3412 1.62565 10.6653 1.62565 11H2.42565ZM2.42716 11.3256L2.42564 10.9981L1.62565 11.0019L1.62717 11.3293L2.42716 11.3256ZM2.43931 11.9484C2.43319 11.7451 2.42916 11.5369 2.42715 11.3236L1.62718 11.3312C1.62924 11.5496 1.63337 11.7633 1.63967 11.9725L2.43931 11.9484ZM2.46424 12.5483L2.43915 11.9439L1.63984 11.977L1.66493 12.5814L2.46424 12.5483ZM2.50202 13.1146L2.4637 12.5383L1.66547 12.5914L1.70379 13.1677L2.50202 13.1146ZM2.52539 13.3812C2.51691 13.2917 2.50899 13.201 2.50163 13.1092L1.70418 13.1731C1.71185 13.2687 1.7201 13.3632 1.72895 13.4566L2.52539 13.3812ZM2.58379 13.9101L2.52476 13.375L1.72958 13.4628L1.78861 13.9979L2.58379 13.9101ZM10.119 19.5744C7.55842 19.5744 5.82792 19.199 4.66884 18.3383C3.52698 17.4903 2.86297 16.1113 2.58302 13.9037L1.78938 14.0043C2.08268 16.3173 2.80213 17.9485 4.19188 18.9805C5.56441 19.9998 7.51368 20.3744 10.119 20.3744V19.5744ZM17.655 13.9038C17.3751 16.1116 16.7112 17.4905 15.5694 18.3384C14.4103 19.1991 12.6798 19.5744 10.119 19.5744V20.3744C12.7245 20.3744 14.6738 19.9999 16.0463 18.9807C17.4361 17.9487 18.1554 16.3175 18.4486 14.0045L17.655 13.9038ZM17.7132 13.3752L17.6542 13.9103L18.4494 13.998L18.5084 13.4629L17.7132 13.3752ZM17.7572 12.8246L17.7121 13.3871L18.5095 13.451L18.5546 12.8885L17.7572 12.8246ZM17.774 12.5435C17.7688 12.6403 17.7631 12.7358 17.7568 12.8301L18.555 12.8831C18.5615 12.7853 18.5675 12.6864 18.5728 12.5863L17.774 12.5435ZM17.7988 11.9439L17.7737 12.5484L18.573 12.5815L18.5981 11.9771L17.7988 11.9439ZM17.8123 11C17.8123 11.3275 17.8078 11.6435 17.7987 11.9485L18.5983 11.9725C18.6077 11.6588 18.6123 11.3347 18.6123 11H17.8123ZM17.8108 10.6744L17.8123 11.0019L18.6123 10.9981L18.6108 10.6707L17.8108 10.6744ZM17.7987 10.0515C17.8048 10.2548 17.8088 10.4631 17.8108 10.6763L18.6108 10.6688C18.6087 10.4504 18.6046 10.2366 18.5983 10.0275L17.7987 10.0515ZM17.7737 9.45165L17.7988 10.0561L18.5981 10.0229L18.573 9.41847L17.7737 9.45165ZM17.7568 9.16994C17.7631 9.26423 17.7688 9.35974 17.774 9.45646L18.5728 9.41366C18.5675 9.31362 18.5615 9.2147 18.555 9.1169L17.7568 9.16994ZM17.7121 8.61293L17.7572 9.17539L18.5546 9.11145L18.5095 8.54899L17.7121 8.61293ZM17.6542 8.08969L17.7132 8.62481L18.5084 8.53711L18.4494 8.00199L17.6542 8.08969Z" fill="#1AA99C" mask="url(#path-1-outside-1_970_5985)"/>
</g>
<path id="Stroke 1" d="M13.8052 14.0228C14.2301 14.0228 14.5744 14.3672 14.5744 14.7921C14.5744 15.1815 14.2851 15.5033 13.9096 15.5543L13.8052 15.5613H6.40009C5.97526 15.5613 5.63086 15.2169 5.63086 14.7921C5.63086 14.4026 5.92025 14.0808 6.29571 14.0299L6.40009 14.0228H13.8052Z" fill="#1AA99C"/>
<path id="Stroke 2" d="M13.8052 10.1647C14.2301 10.1647 14.5744 10.5091 14.5744 10.9339C14.5744 11.3233 14.2851 11.6452 13.9096 11.6961L13.8052 11.7031H6.40009C5.97526 11.7031 5.63086 11.3587 5.63086 10.9339C5.63086 10.5445 5.92025 10.2226 6.29571 10.1717L6.40009 10.1647H13.8052Z" fill="#1AA99C"/>
<path id="Stroke 3" d="M9.2272 6.3105C9.65203 6.3105 9.99643 6.6549 9.99643 7.07973C9.99643 7.46916 9.70704 7.791 9.33158 7.84194L9.2272 7.84896H6.40156C5.97672 7.84896 5.63232 7.50457 5.63232 7.07973C5.63232 6.6903 5.92171 6.36846 6.29717 6.31752L6.40156 6.3105H9.2272Z" fill="#1AA99C"/>
</g>
</svg>
