<svg width="21" height="17" viewBox="0 0 21 17" fill="none" xmlns="http://www.w3.org/2000/svg">
<path fill-rule="evenodd" clip-rule="evenodd" d="M15.3564 1C14.9187 1 14.5058 1.1721 14.1956 1.48518L1.12094 14.6793C1.02034 14.7808 0.97921 14.9281 1.01002 15.0671C1.04284 15.2081 1.14559 15.32 1.28117 15.3656L2.76458 15.8652C3.03171 15.9543 3.30286 16 3.56583 16C4.13493 16 4.66502 15.7948 5.04925 15.405L6.63524 13.8046C7.07908 13.3567 7.28442 12.7286 7.2105 12.0526L7.96042 11.2959C8.09815 11.3332 8.24189 11.3539 8.38361 11.3539C8.80478 11.3539 9.22599 11.1922 9.54642 10.8687L16.5192 3.83214C16.8295 3.51702 17 3.10239 17 2.65871C17 2.21503 16.8295 1.79838 16.5192 1.48527C16.209 1.17217 15.7961 1.00009 15.3564 1.00009L15.3564 1ZM6.4832 11.6129C6.38661 11.7104 6.34347 11.8514 6.37027 11.9882C6.46687 12.4713 6.34978 12.9192 6.056 13.2176L4.46784 14.8203C4.12676 15.1645 3.57417 15.264 3.02357 15.0795L2.17103 14.7912L6.64175 10.2819L7.22317 10.8686L6.4832 11.6129ZM8.9651 10.2816L15.9379 3.24506L15.9382 3.24498C16.0944 3.08734 16.1785 2.87995 16.1785 2.65825C16.1785 2.43639 16.0944 2.22915 15.9382 2.07151C15.6279 1.75841 15.0876 1.75841 14.7753 2.07151L7.22289 9.69485L7.80229 10.2816C8.12272 10.605 8.64466 10.605 8.9651 10.2816ZM9.60004 15H8.39996C8.17996 15 8 15.225 8 15.5C8 15.775 8.17997 16 8.39996 16H9.60004C9.82004 16 10 15.775 10 15.5C10 15.225 9.82199 15 9.60004 15ZM11.4 15H12.6C12.822 15 13 15.225 13 15.5C13 15.775 12.82 16 12.6 16H11.4C11.18 16 11 15.775 11 15.5C11 15.225 11.18 15 11.4 15ZM16.6 15H15.4C15.18 15 15 15.225 15 15.5C15 15.775 15.18 16 15.4 16H16.6C16.82 16 17 15.775 17 15.5C17 15.225 16.8221 15 16.6 15ZM18.4 15H19.6C19.822 15 20 15.225 20 15.5C20 15.775 19.82 16 19.6 16H18.4C18.18 16 18 15.775 18 15.5C18 15.225 18.18 15 18.4 15Z" fill="black"/>
<path d="M14.1956 1.48518L13.947 1.23882L13.947 1.23882L14.1956 1.48518ZM15.3564 1L15.7055 0.974821L15.6821 0.65H15.3564V1ZM1.12094 14.6793L1.36956 14.9257H1.36956L1.12094 14.6793ZM1.01002 15.0671L0.668302 15.1428L0.669135 15.1464L1.01002 15.0671ZM1.28117 15.3656L1.39289 15.0339L1.39265 15.0338L1.28117 15.3656ZM2.76458 15.8652L2.65286 16.1969L2.65386 16.1972L2.76458 15.8652ZM5.04925 15.405L4.80064 15.1587L4.8 15.1593L5.04925 15.405ZM6.63524 13.8046L6.88385 14.0509L6.63524 13.8046ZM7.2105 12.0526L6.96189 11.8063L6.84443 11.9248L6.86257 12.0907L7.2105 12.0526ZM7.96042 11.2959L8.05195 10.958L7.85525 10.9048L7.71181 11.0495L7.96042 11.2959ZM9.54642 10.8687L9.29781 10.6223L9.29775 10.6224L9.54642 10.8687ZM16.5192 3.83214L16.7678 4.0785L16.7686 4.0777L16.5192 3.83214ZM15.3564 1.00009L15.0073 1.02527L15.0307 1.35009H15.3564V1.00009ZM6.37027 11.9882L6.0268 12.0555L6.02707 12.0568L6.37027 11.9882ZM6.4832 11.6129L6.23499 11.3662L6.23459 11.3666L6.4832 11.6129ZM6.056 13.2176L6.30461 13.464L6.30544 13.4632L6.056 13.2176ZM4.46784 14.8203L4.21923 14.5739L4.46784 14.8203ZM3.02357 15.0795L2.91147 15.411L2.91235 15.4113L3.02357 15.0795ZM2.17103 14.7912L1.92248 14.5448L1.52756 14.9431L2.05893 15.1228L2.17103 14.7912ZM6.64175 10.2819L6.89036 10.0355L6.64181 9.78469L6.3932 10.0355L6.64175 10.2819ZM7.22317 10.8686L7.47138 11.1154L7.7163 10.869L7.47178 10.6223L7.22317 10.8686ZM15.9379 3.24506L15.841 2.90872L15.7534 2.93395L15.6893 2.9987L15.9379 3.24506ZM8.9651 10.2816L9.21371 10.5279H9.21371L8.9651 10.2816ZM15.9382 3.24498L16.035 3.58131L16.1226 3.55609L16.1868 3.49133L15.9382 3.24498ZM15.9382 2.07151L16.1868 1.82515V1.82515L15.9382 2.07151ZM14.7753 2.07151L14.5275 1.82435L14.5267 1.82518L14.7753 2.07151ZM7.22289 9.69485L6.97425 9.44852L6.73061 9.69445L6.97385 9.94077L7.22289 9.69485ZM7.80229 10.2816L7.55326 10.5275L7.55368 10.5279L7.80229 10.2816ZM14.4442 1.73155C14.689 1.48454 15.0124 1.35 15.3564 1.35V0.65C14.825 0.65 14.3227 0.859651 13.947 1.23882L14.4442 1.73155ZM1.36956 14.9257L14.4442 1.73154L13.947 1.23882L0.872334 14.433L1.36956 14.9257ZM1.35173 14.9913C1.34617 14.9662 1.35439 14.941 1.36956 14.9257L0.872334 14.433C0.686296 14.6207 0.612253 14.8899 0.668321 15.1428L1.35173 14.9913ZM1.39265 15.0338C1.37154 15.0267 1.35607 15.0099 1.35091 14.9877L0.669135 15.1464C0.729616 15.4063 0.919649 15.6133 1.16968 15.6973L1.39265 15.0338ZM2.8763 15.5335L1.39289 15.0339L1.16944 15.6972L2.65286 16.1969L2.8763 15.5335ZM3.56583 15.65C3.34318 15.65 3.10938 15.6113 2.87531 15.5332L2.65386 16.1972C2.95404 16.2973 3.26253 16.35 3.56583 16.35V15.65ZM4.8 15.1593C4.48781 15.476 4.05054 15.65 3.56583 15.65V16.35C4.21932 16.35 4.84224 16.1136 5.29849 15.6508L4.8 15.1593ZM6.38663 13.5582L4.80064 15.1587L5.29786 15.6514L6.88385 14.0509L6.38663 13.5582ZM6.86257 12.0907C6.92611 12.6717 6.74939 13.1921 6.38663 13.5582L6.88385 14.0509C7.40878 13.5212 7.64273 12.7855 7.55842 12.0146L6.86257 12.0907ZM7.71181 11.0495L6.96189 11.8063L7.45911 12.299L8.20904 11.5422L7.71181 11.0495ZM8.38361 11.0039C8.27538 11.0039 8.16243 10.988 8.05195 10.958L7.8689 11.6337C8.03386 11.6784 8.20839 11.7039 8.38361 11.7039V11.0039ZM9.29775 10.6224C9.04566 10.8769 8.71514 11.0039 8.38361 11.0039V11.7039C8.89442 11.7039 9.40632 11.5075 9.79508 11.115L9.29775 10.6224ZM16.2706 3.58578L9.29781 10.6223L9.79503 11.115L16.7678 4.0785L16.2706 3.58578ZM16.65 2.65871C16.65 3.01031 16.5157 3.33679 16.2698 3.58659L16.7686 4.0777C17.1432 3.69724 17.35 3.19447 17.35 2.65871H16.65ZM16.2706 1.73163C16.5153 1.9786 16.65 2.30647 16.65 2.65871H17.35C17.35 2.12359 17.1436 1.61815 16.7678 1.23892L16.2706 1.73163ZM15.3564 1.35009C15.7026 1.35009 16.026 1.48479 16.2706 1.73163L16.7678 1.23892C16.3919 0.85956 15.8895 0.650093 15.3564 0.650093V1.35009ZM15.0073 1.02518L15.0073 1.02527L15.7055 0.974914L15.7055 0.974821L15.0073 1.02518ZM6.71375 11.9209C6.70922 11.8978 6.71691 11.8743 6.73181 11.8593L6.23459 11.3666C6.05631 11.5465 5.97773 11.805 6.0268 12.0555L6.71375 11.9209ZM6.30544 13.4632C6.69431 13.0681 6.82871 12.4958 6.71348 11.9196L6.02707 12.0568C6.10502 12.4467 6.00526 12.7702 5.80656 12.9721L6.30544 13.4632ZM4.71645 15.0667L6.30461 13.464L5.80739 12.9713L4.21923 14.5739L4.71645 15.0667ZM2.91235 15.4113C3.55915 15.6281 4.26098 15.5263 4.71645 15.0667L4.21923 14.5739C3.99254 14.8027 3.5892 14.8999 3.13478 14.7476L2.91235 15.4113ZM2.05893 15.1228L2.91147 15.411L3.13566 14.7479L2.28312 14.4597L2.05893 15.1228ZM6.3932 10.0355L1.92248 14.5448L2.41958 15.0377L6.8903 10.5283L6.3932 10.0355ZM7.47178 10.6223L6.89036 10.0355L6.39314 10.5282L6.97456 11.115L7.47178 10.6223ZM6.73141 11.8597L7.47138 11.1154L6.97496 10.6218L6.23499 11.3662L6.73141 11.8597ZM15.6893 2.9987L8.71649 10.0352L9.21371 10.5279L16.1865 3.49141L15.6893 2.9987ZM15.8413 2.90865L15.841 2.90872L16.0347 3.58139L16.035 3.58131L15.8413 2.90865ZM15.8285 2.65825C15.8285 2.78896 15.7799 2.90744 15.6895 2.99863L16.1868 3.49133C16.4088 3.26724 16.5285 2.97093 16.5285 2.65825H15.8285ZM15.6895 2.31787C15.7799 2.40907 15.8285 2.5274 15.8285 2.65825H16.5285C16.5285 2.34537 16.4088 2.04922 16.1868 1.82515L15.6895 2.31787ZM15.0232 2.31867C15.1991 2.14225 15.5167 2.1434 15.6895 2.31787L16.1868 1.82515C15.7391 1.37342 14.9761 1.37457 14.5275 1.82435L15.0232 2.31867ZM7.47153 9.94118L15.024 2.31784L14.5267 1.82518L6.97425 9.44852L7.47153 9.94118ZM8.05133 10.0357L7.47193 9.44892L6.97385 9.94077L7.55326 10.5275L8.05133 10.0357ZM8.71649 10.0352C8.53298 10.2204 8.2344 10.2204 8.05091 10.0352L7.55368 10.5279C8.01105 10.9895 8.75634 10.9895 9.21371 10.5279L8.71649 10.0352ZM8.39996 15.35H9.60004V14.65H8.39996V15.35ZM8.35 15.5C8.35 15.4371 8.37093 15.3903 8.3908 15.3655C8.41038 15.341 8.41619 15.35 8.39996 15.35V14.65C7.91778 14.65 7.65 15.1086 7.65 15.5H8.35ZM8.39996 15.65C8.4162 15.65 8.41039 15.659 8.3908 15.6345C8.37093 15.6097 8.35 15.5629 8.35 15.5H7.65C7.65 15.8914 7.9178 16.35 8.39996 16.35V15.65ZM9.60004 15.65H8.39996V16.35H9.60004V15.65ZM9.65 15.5C9.65 15.5629 9.62907 15.6097 9.60921 15.6345C9.58962 15.659 9.58381 15.65 9.60004 15.65V16.35C10.0822 16.35 10.35 15.8914 10.35 15.5H9.65ZM9.60004 15.35C9.58533 15.35 9.59081 15.3415 9.60958 15.365C9.629 15.3894 9.65 15.4361 9.65 15.5H10.35C10.35 15.1098 10.0851 14.65 9.60004 14.65V15.35ZM12.6 14.65H11.4V15.35H12.6V14.65ZM13.35 15.5C13.35 15.1098 13.0851 14.65 12.6 14.65V15.35C12.5853 15.35 12.5908 15.3415 12.6096 15.365C12.629 15.3894 12.65 15.4361 12.65 15.5H13.35ZM12.6 16.35C13.0822 16.35 13.35 15.8914 13.35 15.5H12.65C12.65 15.5629 12.6291 15.6097 12.6092 15.6345C12.5896 15.659 12.5838 15.65 12.6 15.65V16.35ZM11.4 16.35H12.6V15.65H11.4V16.35ZM10.65 15.5C10.65 15.8914 10.9178 16.35 11.4 16.35V15.65C11.4162 15.65 11.4104 15.659 11.3908 15.6345C11.3709 15.6097 11.35 15.5629 11.35 15.5H10.65ZM11.4 14.65C10.9178 14.65 10.65 15.1086 10.65 15.5H11.35C11.35 15.4371 11.3709 15.3903 11.3908 15.3655C11.4104 15.341 11.4162 15.35 11.4 15.35V14.65ZM15.4 15.35H16.6V14.65H15.4V15.35ZM15.35 15.5C15.35 15.4371 15.3709 15.3903 15.3908 15.3655C15.4104 15.341 15.4162 15.35 15.4 15.35V14.65C14.9178 14.65 14.65 15.1086 14.65 15.5H15.35ZM15.4 15.65C15.4162 15.65 15.4104 15.659 15.3908 15.6345C15.3709 15.6097 15.35 15.5629 15.35 15.5H14.65C14.65 15.8914 14.9178 16.35 15.4 16.35V15.65ZM16.6 15.65H15.4V16.35H16.6V15.65ZM16.65 15.5C16.65 15.5629 16.6291 15.6097 16.6092 15.6345C16.5896 15.659 16.5838 15.65 16.6 15.65V16.35C17.0822 16.35 17.35 15.8914 17.35 15.5H16.65ZM16.6 15.35C16.5854 15.35 16.5909 15.3415 16.6096 15.365C16.629 15.3893 16.65 15.436 16.65 15.5H17.35C17.35 15.1099 17.0853 14.65 16.6 14.65V15.35ZM19.6 14.65H18.4V15.35H19.6V14.65ZM20.35 15.5C20.35 15.1098 20.0851 14.65 19.6 14.65V15.35C19.5853 15.35 19.5908 15.3415 19.6096 15.365C19.629 15.3894 19.65 15.4361 19.65 15.5H20.35ZM19.6 16.35C20.0822 16.35 20.35 15.8914 20.35 15.5H19.65C19.65 15.5629 19.6291 15.6097 19.6092 15.6345C19.5896 15.659 19.5838 15.65 19.6 15.65V16.35ZM18.4 16.35H19.6V15.65H18.4V16.35ZM17.65 15.5C17.65 15.8914 17.9178 16.35 18.4 16.35V15.65C18.4162 15.65 18.4104 15.659 18.3908 15.6345C18.3709 15.6097 18.35 15.5629 18.35 15.5H17.65ZM18.4 14.65C17.9178 14.65 17.65 15.1086 17.65 15.5H18.35C18.35 15.4371 18.3709 15.3903 18.3908 15.3655C18.4104 15.341 18.4162 15.35 18.4 15.35V14.65Z" fill="#101010"/>
</svg>
