<svg width="20" height="23" viewBox="0 0 20 23" fill="none" xmlns="http://www.w3.org/2000/svg">
<g id="Iconly/Curved/Document">
<g id="Document">
<g id="Stroke 4">
<mask id="path-1-outside-1_88_636" maskUnits="userSpaceOnUse" x="0.109863" y="2.05273" width="20" height="21" fill="black">
<rect fill="white" x="0.109863" y="2.05273" width="20" height="21"/>
<path fill-rule="evenodd" clip-rule="evenodd" d="M1.10986 12.8027C1.10986 5.59979 3.42034 3.05273 10.0009 3.05273C16.582 3.05273 18.8919 5.59936 18.8919 12.8027L18.8902 13.137C18.8186 20.0851 16.4792 22.5527 10.0009 22.5527C3.42034 22.5527 1.10986 20.0057 1.10986 12.8027ZM17.7354 9.92243C17.1766 5.51469 15.0381 4.05273 10.0009 4.05273L9.71349 4.05437C4.88247 4.11006 2.81457 5.59977 2.2664 9.92258L2.20885 10.4443C2.2004 10.5335 2.19252 10.6237 2.18519 10.7151L2.14783 11.277L2.12336 11.8663C2.11428 12.1679 2.10986 12.4799 2.10986 12.8027L2.11134 13.122C2.11333 13.3324 2.11731 13.5381 2.12336 13.7392L2.14783 14.3285L2.18519 14.8903C2.19252 14.9817 2.2004 15.072 2.20885 15.1612L2.2664 15.6829C2.82532 20.0905 4.96415 21.5527 10.0009 21.5527C15.0381 21.5527 17.1766 20.0908 17.7354 15.683L17.7929 15.1613L17.8369 14.6129C17.8431 14.5193 17.8488 14.4245 17.8539 14.3285L17.8784 13.7392C17.8874 13.4376 17.8919 13.1256 17.8919 12.8027L17.8904 12.4835C17.8884 12.273 17.8844 12.0673 17.8784 11.8662L17.8539 11.2769C17.8488 11.181 17.8431 11.0862 17.8369 10.9926L17.7929 10.4442L17.7354 9.92243Z"/>
</mask>
<path fill-rule="evenodd" clip-rule="evenodd" d="M1.10986 12.8027C1.10986 5.59979 3.42034 3.05273 10.0009 3.05273C16.582 3.05273 18.8919 5.59936 18.8919 12.8027L18.8902 13.137C18.8186 20.0851 16.4792 22.5527 10.0009 22.5527C3.42034 22.5527 1.10986 20.0057 1.10986 12.8027ZM17.7354 9.92243C17.1766 5.51469 15.0381 4.05273 10.0009 4.05273L9.71349 4.05437C4.88247 4.11006 2.81457 5.59977 2.2664 9.92258L2.20885 10.4443C2.2004 10.5335 2.19252 10.6237 2.18519 10.7151L2.14783 11.277L2.12336 11.8663C2.11428 12.1679 2.10986 12.4799 2.10986 12.8027L2.11134 13.122C2.11333 13.3324 2.11731 13.5381 2.12336 13.7392L2.14783 14.3285L2.18519 14.8903C2.19252 14.9817 2.2004 15.072 2.20885 15.1612L2.2664 15.6829C2.82532 20.0905 4.96415 21.5527 10.0009 21.5527C15.0381 21.5527 17.1766 20.0908 17.7354 15.683L17.7929 15.1613L17.8369 14.6129C17.8431 14.5193 17.8488 14.4245 17.8539 14.3285L17.8784 13.7392C17.8874 13.4376 17.8919 13.1256 17.8919 12.8027L17.8904 12.4835C17.8884 12.273 17.8844 12.0673 17.8784 11.8662L17.8539 11.2769C17.8488 11.181 17.8431 11.0862 17.8369 10.9926L17.7929 10.4442L17.7354 9.92243Z" fill="#333333"/>
<path d="M18.8919 12.8027L19.2919 12.8048V12.8027H18.8919ZM18.8902 13.137L19.2901 13.1411L19.2902 13.139L18.8902 13.137ZM10.0009 4.05273V3.65273L9.99859 3.65274L10.0009 4.05273ZM17.7354 9.92243L18.133 9.87858L18.1322 9.87212L17.7354 9.92243ZM9.71349 4.05437L9.71122 3.65437L9.70888 3.65439L9.71349 4.05437ZM2.2664 9.92258L1.86953 9.87226L1.86881 9.87872L2.2664 9.92258ZM2.20885 10.4443L1.81121 10.4004L1.81063 10.4066L2.20885 10.4443ZM2.18519 10.7151L1.78643 10.6832L1.78607 10.6886L2.18519 10.7151ZM2.14783 11.277L1.74858 11.2505L1.74817 11.2604L2.14783 11.277ZM2.12336 11.8663L1.72368 11.8497L1.72354 11.8543L2.12336 11.8663ZM2.10986 12.8027H1.70986L1.70987 12.8046L2.10986 12.8027ZM2.11134 13.122L1.71134 13.1238L1.71136 13.1257L2.11134 13.122ZM2.12336 13.7392L1.72352 13.7512L1.72371 13.7558L2.12336 13.7392ZM2.14783 14.3285L1.74805 14.3451L1.74871 14.355L2.14783 14.3285ZM2.18519 14.8903L1.78603 14.9169L1.78647 14.9223L2.18519 14.8903ZM2.20885 15.1612L1.81059 15.1989L1.81126 15.205L2.20885 15.1612ZM2.2664 15.6829L1.86876 15.7268L1.86958 15.7332L2.2664 15.6829ZM17.7354 15.683L18.1322 15.7334L18.133 15.7269L17.7354 15.683ZM17.7929 15.1613L18.1907 15.2052L18.1916 15.1933L17.7929 15.1613ZM17.8369 14.6129L18.2356 14.6449L18.236 14.6394L17.8369 14.6129ZM17.8539 14.3285L18.2534 14.3499L18.2536 14.3451L17.8539 14.3285ZM17.8784 13.7392L18.278 13.7558L18.2782 13.7513L17.8784 13.7392ZM17.8919 12.8027H18.2919L18.2919 12.8009L17.8919 12.8027ZM17.8904 12.4835L18.2904 12.4816L18.2904 12.4797L17.8904 12.4835ZM17.8784 11.8662L18.2782 11.8542L18.278 11.8497L17.8784 11.8662ZM17.8539 11.2769L18.2536 11.2603L18.2533 11.2555L17.8539 11.2769ZM17.8369 10.9926L18.236 10.966L18.2356 10.9606L17.8369 10.9926ZM17.7929 10.4442L18.1918 10.4122L18.1905 10.4003L17.7929 10.4442ZM10.0009 2.65273C6.67552 2.65273 4.30785 3.29311 2.79196 4.95727C1.28584 6.61069 0.709863 9.18036 0.709863 12.8027H1.50986C1.50986 9.22216 2.08912 6.91683 3.38338 5.49599C4.66785 4.08589 6.74568 3.45273 10.0009 3.45273V2.65273ZM19.2919 12.8027C19.2919 9.18018 18.716 6.61049 17.21 4.95711C15.6942 3.29299 13.3265 2.65273 10.0009 2.65273V3.45273C13.2564 3.45273 15.3342 4.08579 16.6186 5.49583C17.9127 6.9166 18.4919 9.22191 18.4919 12.8027H19.2919ZM19.2902 13.139L19.2919 12.8048L18.4919 12.8007L18.4902 13.135L19.2902 13.139ZM10.0009 22.9527C13.2745 22.9527 15.62 22.3325 17.1388 20.7251C18.6505 19.1252 19.2541 16.6393 19.2901 13.1411L18.4902 13.1329C18.4547 16.5828 17.8528 18.8047 16.5573 20.1757C15.2689 21.5392 13.2056 22.1527 10.0009 22.1527V22.9527ZM0.709863 12.8027C0.709863 16.4251 1.28584 18.9948 2.79196 20.6482C4.30785 22.3124 6.67552 22.9527 10.0009 22.9527V22.1527C6.74568 22.1527 4.66785 21.5196 3.38338 20.1095C2.08912 18.6886 1.50986 16.3833 1.50986 12.8027H0.709863ZM10.0009 4.45273C12.4971 4.45273 14.1817 4.81862 15.309 5.65582C16.4192 6.48022 17.0658 7.8215 17.3385 9.97274L18.1322 9.87212C17.8461 7.61562 17.1441 6.02206 15.786 5.01354C14.4451 4.01783 12.5418 3.65273 10.0009 3.65273V4.45273ZM9.71576 4.45436L10.0031 4.45273L9.99859 3.65274L9.71122 3.65437L9.71576 4.45436ZM2.66322 9.9729C2.93082 7.8627 3.55833 6.53235 4.62857 5.70473C5.71269 4.86639 7.32815 4.48189 9.7181 4.45434L9.70888 3.65439C7.2678 3.68254 5.43381 4.07075 4.13918 5.07188C2.83068 6.08375 2.15016 7.65966 1.86958 9.87226L2.66322 9.9729ZM2.60644 10.4882L2.66399 9.96644L1.86881 9.87872L1.81126 10.4004L2.60644 10.4882ZM2.58391 10.7471C2.59109 10.6576 2.5988 10.5692 2.60706 10.482L1.81063 10.4066C1.802 10.4977 1.79395 10.5899 1.78647 10.6832L2.58391 10.7471ZM2.54694 11.3036L2.58431 10.7417L1.78607 10.6886L1.74871 11.2505L2.54694 11.3036ZM2.52302 11.8829L2.54748 11.2936L1.74817 11.2604L1.72371 11.8497L2.52302 11.8829ZM2.50986 12.8027C2.50986 12.4836 2.51423 12.1755 2.52318 11.8783L1.72354 11.8543C1.71433 12.1602 1.70986 12.4763 1.70986 12.8027H2.50986ZM2.51134 13.1201L2.50986 12.8009L1.70987 12.8046L1.71135 13.1238L2.51134 13.1201ZM2.52318 13.7271C2.51721 13.529 2.51328 13.3261 2.51133 13.1182L1.71136 13.1257C1.71337 13.3388 1.7174 13.5472 1.72354 13.7512L2.52318 13.7271ZM2.54748 14.3119L2.52302 13.7226L1.72371 13.7558L1.74817 14.345L2.54748 14.3119ZM2.58431 14.8638L2.54694 14.3019L1.74871 14.355L1.78607 14.9169L2.58431 14.8638ZM2.60706 15.1234C2.5988 15.0362 2.59109 14.9479 2.58391 14.8584L1.78647 14.9223C1.79395 15.0156 1.802 15.1078 1.81063 15.1989L2.60706 15.1234ZM2.66399 15.639L2.60644 15.1173L1.81126 15.205L1.86881 15.7267L2.66399 15.639ZM10.0009 21.1527C7.50488 21.1527 5.82037 20.7868 4.69294 19.9495C3.58273 19.125 2.93601 17.7837 2.66322 15.6326L1.86958 15.7332C2.15571 17.9896 2.85787 19.5832 4.21598 20.5918C5.55686 21.5876 7.46013 21.9527 10.0009 21.9527V21.1527ZM17.3385 15.6327C17.0658 17.784 16.4192 19.1253 15.309 19.9496C14.1817 20.7868 12.4971 21.1527 10.0009 21.1527V21.9527C12.5418 21.9527 14.4451 21.5876 15.786 20.5919C17.1441 19.5834 17.8461 17.9898 18.1322 15.7333L17.3385 15.6327ZM17.3953 15.1174L17.3378 15.6392L18.133 15.7269L18.1905 15.2051L17.3953 15.1174ZM17.4382 14.5809L17.3942 15.1293L18.1916 15.1933L18.2356 14.6449L17.4382 14.5809ZM17.4545 14.3072C17.4494 14.4014 17.4439 14.4945 17.4378 14.5864L18.236 14.6394C18.2423 14.544 18.2481 14.4475 18.2533 14.3499L17.4545 14.3072ZM17.4787 13.7226L17.4543 14.312L18.2536 14.3451L18.278 13.7558L17.4787 13.7226ZM17.4919 12.8027C17.4919 13.1219 17.4875 13.43 17.4785 13.7272L18.2782 13.7513C18.2874 13.4453 18.2919 13.1292 18.2919 12.8027H17.4919ZM17.4904 12.4853L17.4919 12.8046L18.2919 12.8009L18.2904 12.4816L17.4904 12.4853ZM17.4785 11.8783C17.4845 12.0764 17.4884 12.2794 17.4904 12.4872L18.2904 12.4797C18.2884 12.2667 18.2843 12.0582 18.2782 11.8542L17.4785 11.8783ZM17.4543 11.2935L17.4787 11.8828L18.278 11.8497L18.2536 11.2603L17.4543 11.2935ZM17.4378 11.0191C17.4439 11.111 17.4494 11.2041 17.4545 11.2983L18.2533 11.2555C18.2481 11.1579 18.2423 11.0615 18.236 10.966L17.4378 11.0191ZM17.3942 10.4761L17.4382 11.0245L18.2356 10.9606L18.1916 10.4122L17.3942 10.4761ZM17.3378 9.96628L17.3953 10.488L18.1905 10.4003L18.133 9.87858L17.3378 9.96628Z" fill="#333333" mask="url(#path-1-outside-1_88_636)"/>
</g>
<path id="Stroke 1" d="M8.87549 6.39794C8.87549 6.73045 8.5397 7 8.12549 7C7.74579 7 7.432 6.7735 7.38233 6.47963L7.37549 6.39794V0.602064C7.37549 0.269553 7.71127 0 8.12549 0C8.50518 0 8.81898 0.2265 8.86864 0.520368L8.87549 0.602064V6.39794Z" fill="#333333"/>
<path id="Stroke 1_2" d="M12.8755 6.39794C12.8755 6.73045 12.5397 7 12.1255 7C11.7458 7 11.432 6.7735 11.3823 6.47963L11.3755 6.39794V0.602064C11.3755 0.269553 11.7113 0 12.1255 0C12.5052 0 12.819 0.2265 12.8686 0.520368L12.8755 0.602064V6.39794Z" fill="#333333"/>
<path id="Stroke 2" d="M16.9074 8.98828C17.7016 8.98828 18.3455 9.32407 18.3455 9.73828C18.3455 10.118 17.8045 10.4318 17.1026 10.4814L16.9074 10.4883H3.06356C2.26934 10.4883 1.62549 10.1525 1.62549 9.73828C1.62549 9.35859 2.1665 9.04479 2.86842 8.99513L3.06356 8.98828H16.9074Z" fill="#333333"/>
</g>
</g>
</svg>
