<svg width="15" height="18" viewBox="0 0 15 18" fill="none" xmlns="http://www.w3.org/2000/svg">
<g id="Document">
<circle id="Oval" cx="9.5" cy="12.5" r="3.5" fill="#FF8462"/>
<g id="Stroke 4">
<mask id="path-2-outside-1_88_2214" maskUnits="userSpaceOnUse" x="0.0809326" y="1.24938" width="15" height="16" fill="black">
<rect fill="white" x="0.0809326" y="1.24938" width="15" height="16"/>
<path fill-rule="evenodd" clip-rule="evenodd" d="M1.08093 9.43359C1.08093 4.12616 2.78339 2.24938 7.6322 2.24938C12.4815 2.24938 14.1835 4.12584 14.1835 9.43359L14.1822 9.67989C14.1295 14.7995 12.4057 16.6178 7.6322 16.6178C2.78339 16.6178 1.08093 14.741 1.08093 9.43359ZM13.3313 7.31126C12.9196 4.06346 11.3438 2.98622 7.6322 2.98622L7.42045 2.98743C3.86075 3.02847 2.33703 4.12615 1.93312 7.31138L1.89071 7.6958C1.88449 7.7615 1.87868 7.82801 1.87328 7.89536L1.84575 8.30938L1.82772 8.74359C1.82103 8.96581 1.81777 9.19574 1.81777 9.43359L1.81887 9.66881C1.82033 9.82388 1.82326 9.97545 1.82772 10.1236L1.84575 10.5578L1.87328 10.9718C1.87868 11.0392 1.88449 11.1057 1.89071 11.1714L1.93312 11.5558C2.34495 14.8035 3.92093 15.881 7.6322 15.881C11.3438 15.881 12.9196 14.8037 13.3313 11.5559L13.3737 11.1715L13.4061 10.7674C13.4107 10.6984 13.4149 10.6286 13.4187 10.5579L13.4367 10.1236C13.4434 9.90141 13.4466 9.67146 13.4466 9.43359L13.4455 9.19836C13.4441 9.04328 13.4411 8.8917 13.4367 8.74355L13.4187 8.30931C13.4149 8.23863 13.4107 8.16879 13.4061 8.09979L13.3737 7.69571L13.3313 7.31126Z"/>
</mask>
<path fill-rule="evenodd" clip-rule="evenodd" d="M1.08093 9.43359C1.08093 4.12616 2.78339 2.24938 7.6322 2.24938C12.4815 2.24938 14.1835 4.12584 14.1835 9.43359L14.1822 9.67989C14.1295 14.7995 12.4057 16.6178 7.6322 16.6178C2.78339 16.6178 1.08093 14.741 1.08093 9.43359ZM13.3313 7.31126C12.9196 4.06346 11.3438 2.98622 7.6322 2.98622L7.42045 2.98743C3.86075 3.02847 2.33703 4.12615 1.93312 7.31138L1.89071 7.6958C1.88449 7.7615 1.87868 7.82801 1.87328 7.89536L1.84575 8.30938L1.82772 8.74359C1.82103 8.96581 1.81777 9.19574 1.81777 9.43359L1.81887 9.66881C1.82033 9.82388 1.82326 9.97545 1.82772 10.1236L1.84575 10.5578L1.87328 10.9718C1.87868 11.0392 1.88449 11.1057 1.89071 11.1714L1.93312 11.5558C2.34495 14.8035 3.92093 15.881 7.6322 15.881C11.3438 15.881 12.9196 14.8037 13.3313 11.5559L13.3737 11.1715L13.4061 10.7674C13.4107 10.6984 13.4149 10.6286 13.4187 10.5579L13.4367 10.1236C13.4434 9.90141 13.4466 9.67146 13.4466 9.43359L13.4455 9.19836C13.4441 9.04328 13.4411 8.8917 13.4367 8.74355L13.4187 8.30931C13.4149 8.23863 13.4107 8.16879 13.4061 8.09979L13.3737 7.69571L13.3313 7.31126Z" fill="black"/>
<path d="M14.1835 9.43359L14.5835 9.43563V9.43359H14.1835ZM14.1822 9.67989L14.5822 9.684L14.5822 9.68192L14.1822 9.67989ZM7.6322 2.98622V2.58622L7.62992 2.58623L7.6322 2.98622ZM13.3313 7.31126L13.7289 7.26741L13.7281 7.26096L13.3313 7.31126ZM7.42045 2.98743L7.41817 2.58743L7.41583 2.58745L7.42045 2.98743ZM1.93312 7.31138L1.53624 7.26105L1.53553 7.26752L1.93312 7.31138ZM1.89071 7.6958L1.49308 7.65194L1.4925 7.65807L1.89071 7.6958ZM1.87328 7.89536L1.47452 7.86339L1.47416 7.86882L1.87328 7.89536ZM1.84575 8.30938L1.44651 8.28283L1.44609 8.29278L1.84575 8.30938ZM1.82772 8.74359L1.42804 8.727L1.4279 8.73155L1.82772 8.74359ZM1.81777 9.43359H1.41777L1.41778 9.43545L1.81777 9.43359ZM1.81887 9.66881L1.41887 9.67067L1.41888 9.67258L1.81887 9.66881ZM1.82772 10.1236L1.42788 10.1356L1.42806 10.1402L1.82772 10.1236ZM1.84575 10.5578L1.44597 10.5744L1.44663 10.5843L1.84575 10.5578ZM1.87328 10.9718L1.47412 10.9984L1.47456 11.0038L1.87328 10.9718ZM1.89071 11.1714L1.49245 11.2091L1.49312 11.2152L1.89071 11.1714ZM1.93312 11.5558L1.53548 11.5997L1.5363 11.6061L1.93312 11.5558ZM13.3313 11.5559L13.7282 11.6062L13.7289 11.5998L13.3313 11.5559ZM13.3737 11.1715L13.7715 11.2153L13.7724 11.2034L13.3737 11.1715ZM13.4061 10.7674L13.8049 10.7994L13.8052 10.7939L13.4061 10.7674ZM13.4187 10.5579L13.8181 10.5793L13.8183 10.5745L13.4187 10.5579ZM13.4367 10.1236L13.8364 10.1402L13.8365 10.1357L13.4367 10.1236ZM13.4466 9.43359H13.8466L13.8466 9.43174L13.4466 9.43359ZM13.4455 9.19836L13.8455 9.1965L13.8455 9.19459L13.4455 9.19836ZM13.4367 8.74355L13.8365 8.73151L13.8363 8.72696L13.4367 8.74355ZM13.4187 8.30931L13.8183 8.29272L13.8181 8.28791L13.4187 8.30931ZM13.4061 8.09979L13.8053 8.07326L13.8048 8.06782L13.4061 8.09979ZM13.3737 7.69571L13.7726 7.66372L13.7713 7.65186L13.3737 7.69571ZM7.6322 1.84938C5.17271 1.84938 3.38998 2.32219 2.24255 3.58184C1.10491 4.83075 0.680933 6.75898 0.680933 9.43359H1.48093C1.48093 6.80077 1.90819 5.13689 2.83397 4.12056C3.74998 3.11497 5.24287 2.64938 7.6322 2.64938V1.84938ZM14.5835 9.43359C14.5835 6.75885 14.1596 4.83061 13.022 3.58172C11.8746 2.3221 10.0919 1.84938 7.6322 1.84938V2.64938C10.0218 2.64938 11.5146 3.1149 12.4306 4.12044C13.3563 5.13672 13.7835 6.80059 13.7835 9.43359H14.5835ZM14.5822 9.68192L14.5835 9.43563L13.7835 9.43156L13.7822 9.67785L14.5822 9.68192ZM7.6322 17.0178C10.0534 17.0178 11.8188 16.5599 12.9682 15.3434C14.1106 14.1345 14.5556 12.268 14.5822 9.684L13.7822 9.67577C13.7561 12.2114 13.3128 13.8139 12.3868 14.794C11.4677 15.7666 9.98448 16.2178 7.6322 16.2178V17.0178ZM0.680933 9.43359C0.680933 12.1082 1.10491 14.0364 2.24255 15.2853C3.38998 16.545 5.17271 17.0178 7.6322 17.0178V16.2178C5.24287 16.2178 3.74998 15.7522 2.83397 14.7466C1.90819 13.7303 1.48093 12.0664 1.48093 9.43359H0.680933ZM7.6322 3.38622C9.46566 3.38622 10.6781 3.65593 11.4807 4.25195C12.2661 4.83518 12.7353 5.7903 12.9345 7.36157L13.7281 7.26096C13.5156 5.58442 12.991 4.37702 11.9577 3.60968C10.9416 2.85513 9.51036 2.58622 7.6322 2.58622V3.38622ZM7.42272 3.38742L7.63447 3.38622L7.62992 2.58623L7.41817 2.58743L7.42272 3.38742ZM2.32994 7.3617C2.52541 5.82028 2.98081 4.87233 3.73806 4.28676C4.50918 3.69045 5.67077 3.40763 7.42506 3.3874L7.41583 2.58745C5.61042 2.60827 4.23031 2.89481 3.24867 3.6539C2.25316 4.42373 1.74475 5.61724 1.5363 7.26106L2.32994 7.3617ZM2.2883 7.73966L2.33071 7.35524L1.53553 7.26752L1.49312 7.65194L2.2883 7.73966ZM2.272 7.92732C2.27725 7.86185 2.28289 7.79726 2.28893 7.73354L1.4925 7.65807C1.48608 7.72574 1.48011 7.79418 1.47456 7.86339L2.272 7.92732ZM2.24487 8.33592L2.2724 7.9219L1.47416 7.86882L1.44663 8.28284L2.24487 8.33592ZM2.22738 8.76018L2.2454 8.32597L1.44609 8.29278L1.42806 8.727L2.22738 8.76018ZM2.21777 9.43359C2.21777 9.19937 2.22098 8.97347 2.22754 8.75563L1.4279 8.73155C1.42108 8.95815 1.41777 9.19211 1.41777 9.43359H2.21777ZM2.21886 9.66696L2.21777 9.43174L1.41778 9.43545L1.41887 9.67067L2.21886 9.66696ZM2.22754 10.1116C2.22317 9.96634 2.22028 9.81753 2.21885 9.66505L1.41888 9.67258C1.42037 9.83023 1.42335 9.98456 1.4279 10.1356L2.22754 10.1116ZM2.2454 10.5412L2.22738 10.107L1.42806 10.1402L1.44609 10.5744L2.2454 10.5412ZM2.2724 10.9453L2.24487 10.5313L1.44663 10.5843L1.47416 10.9984L2.2724 10.9453ZM2.28893 11.1336C2.28289 11.0699 2.27725 11.0053 2.272 10.9399L1.47456 11.0038C1.48011 11.073 1.48608 11.1414 1.4925 11.2091L2.28893 11.1336ZM2.33071 11.5119L2.2883 11.1275L1.49312 11.2152L1.53553 11.5997L2.33071 11.5119ZM7.6322 15.481C5.79893 15.481 4.58651 15.2112 3.78385 14.6151C2.99842 14.0319 2.52918 13.0767 2.32994 11.5055L1.5363 11.6061C1.74889 13.2826 2.27356 14.49 3.30689 15.2574C4.323 16.012 5.75419 16.281 7.6322 16.281V15.481ZM12.9345 11.5056C12.7353 13.0769 12.2661 14.032 11.4807 14.6152C10.6781 15.2113 9.46566 15.481 7.6322 15.481V16.281C9.51036 16.281 10.9416 16.0121 11.9577 15.2575C12.991 14.4902 13.5156 13.2828 13.7281 11.6062L12.9345 11.5056ZM12.9761 11.1276L12.9337 11.5121L13.7289 11.5998L13.7713 11.2153L12.9761 11.1276ZM13.0074 10.7354L12.975 11.1395L13.7724 11.2034L13.8048 10.7994L13.0074 10.7354ZM13.0192 10.5365C13.0155 10.6055 13.0114 10.6736 13.007 10.7409L13.8052 10.7939C13.8099 10.7232 13.8142 10.6516 13.8181 10.5793L13.0192 10.5365ZM13.037 10.1071L13.019 10.5413L13.8183 10.5745L13.8363 10.1402L13.037 10.1071ZM13.0466 9.43359C13.0466 9.66784 13.0434 9.89375 13.0369 10.1116L13.8365 10.1357C13.8433 9.90907 13.8466 9.67509 13.8466 9.43359H13.0466ZM13.0455 9.20021L13.0466 9.43545L13.8466 9.43174L13.8455 9.1965L13.0455 9.20021ZM13.0369 8.75558C13.0412 8.90081 13.0441 9.04963 13.0455 9.20212L13.8455 9.19459C13.844 9.03694 13.841 8.88259 13.8365 8.73151L13.0369 8.75558ZM13.019 8.32589L13.037 8.76013L13.8363 8.72696L13.8183 8.29272L13.019 8.32589ZM13.007 8.12631C13.0114 8.19355 13.0155 8.26168 13.0192 8.3307L13.8181 8.28791C13.8142 8.21558 13.8099 8.14403 13.8052 8.07327L13.007 8.12631ZM12.975 7.72767L13.0074 8.13176L13.8048 8.06782L13.7724 7.66374L12.975 7.72767ZM12.9337 7.35511L12.9761 7.73955L13.7713 7.65186L13.7289 7.26741L12.9337 7.35511Z" fill="black" mask="url(#path-2-outside-1_88_2214)"/>
</g>
<path id="Stroke 1" d="M6.80298 4.71427C6.80298 4.95928 6.55556 5.15789 6.25035 5.15789C5.97057 5.15789 5.73935 4.991 5.70276 4.77447L5.69772 4.71427V0.443626C5.69772 0.198618 5.94514 0 6.25035 0C6.53012 0 6.76134 0.166894 6.79793 0.383429L6.80298 0.443626V4.71427Z" fill="black"/>
<path id="Stroke 1_2" d="M9.75037 4.71427C9.75037 4.95928 9.50294 5.15789 9.19773 5.15789C8.91796 5.15789 8.68674 4.991 8.65015 4.77447L8.6451 4.71427V0.443626C8.6451 0.198618 8.89252 0 9.19773 0C9.47751 0 9.70873 0.166894 9.74532 0.383429L9.75037 0.443626V4.71427Z" fill="black"/>
<path id="Stroke 2" d="M12.7212 6.62294C13.3064 6.62294 13.7808 6.87036 13.7808 7.17557C13.7808 7.45535 13.3822 7.68657 12.865 7.72316L12.7212 7.7282H2.52045C1.93523 7.7282 1.46082 7.48078 1.46082 7.17557C1.46082 6.8958 1.85945 6.66458 2.37666 6.62798L2.52045 6.62294H12.7212Z" fill="black"/>
</g>
</svg>
