<svg width="22" height="22" viewBox="0 0 22 22" fill="none" xmlns="http://www.w3.org/2000/svg">
<g id="Group 14">
<path id="Combined Shape" fill-rule="evenodd" clip-rule="evenodd" d="M14.8249 6.42413C14.8249 5.98578 14.4696 5.63043 14.0312 5.63043H9.07063L8.97107 5.63662C8.57972 5.68559 8.27693 6.0195 8.27693 6.42413V10.095H5.59818L5.49862 10.1012C5.10727 10.1501 4.80448 10.4841 4.80448 10.8887C4.80448 11.327 5.15983 11.6824 5.59818 11.6824H8.27693V15.3532L8.28312 15.4528C8.33209 15.8441 8.666 16.1469 9.07063 16.1469H14.0312L14.1308 16.1407C14.5222 16.0918 14.8249 15.7579 14.8249 15.3532L14.8188 15.2537C14.7698 14.8623 14.4359 14.5595 14.0312 14.5595H9.86433V11.6824H13.8328L13.9324 11.6762C14.3237 11.6272 14.6265 11.2933 14.6265 10.8887C14.6265 10.4503 14.2711 10.095 13.8328 10.095H9.86433V7.21783H14.0312L14.1308 7.21164C14.5222 7.16267 14.8249 6.82876 14.8249 6.42413Z" fill="#1AA99C"/>
<g id="Oval">
<mask id="path-2-outside-1_970_5978" maskUnits="userSpaceOnUse" x="0" y="0" width="22" height="22" fill="black">
<rect fill="white" width="22" height="22"/>
<path fill-rule="evenodd" clip-rule="evenodd" d="M1 11C1 5.47715 5.47715 1 11 1C16.5228 1 21 5.47715 21 11C21 16.5228 16.5228 21 11 21C5.47715 21 1 16.5228 1 11ZM19.9999 11C19.9999 6.02943 15.9705 2 10.9999 2C6.02939 2 1.99995 6.02943 1.99995 11C1.99995 15.9706 6.02939 20 10.9999 20C15.9705 20 19.9999 15.9706 19.9999 11Z"/>
</mask>
<path fill-rule="evenodd" clip-rule="evenodd" d="M1 11C1 5.47715 5.47715 1 11 1C16.5228 1 21 5.47715 21 11C21 16.5228 16.5228 21 11 21C5.47715 21 1 16.5228 1 11ZM19.9999 11C19.9999 6.02943 15.9705 2 10.9999 2C6.02939 2 1.99995 6.02943 1.99995 11C1.99995 15.9706 6.02939 20 10.9999 20C15.9705 20 19.9999 15.9706 19.9999 11Z" fill="#1AA99C"/>
<path d="M11 0.6C5.25624 0.6 0.6 5.25624 0.6 11H1.4C1.4 5.69807 5.69807 1.4 11 1.4V0.6ZM21.4 11C21.4 5.25624 16.7438 0.6 11 0.6V1.4C16.3019 1.4 20.6 5.69807 20.6 11H21.4ZM11 21.4C16.7438 21.4 21.4 16.7438 21.4 11H20.6C20.6 16.3019 16.3019 20.6 11 20.6V21.4ZM0.6 11C0.6 16.7438 5.25624 21.4 11 21.4V20.6C5.69807 20.6 1.4 16.3019 1.4 11H0.6ZM10.9999 2.4C15.7496 2.4 19.5999 6.25035 19.5999 11H20.3999C20.3999 5.80852 16.1914 1.6 10.9999 1.6V2.4ZM2.39995 11C2.39995 6.25035 6.2503 2.4 10.9999 2.4V1.6C5.80847 1.6 1.59995 5.80852 1.59995 11H2.39995ZM10.9999 19.6C6.2503 19.6 2.39995 15.7496 2.39995 11H1.59995C1.59995 16.1915 5.80847 20.4 10.9999 20.4V19.6ZM19.5999 11C19.5999 15.7496 15.7496 19.6 10.9999 19.6V20.4C16.1914 20.4 20.3999 16.1915 20.3999 11H19.5999Z" fill="#1AA99C" mask="url(#path-2-outside-1_970_5978)"/>
</g>
</g>
</svg>
