<svg width="83" height="83" viewBox="0 0 83 83" fill="none" xmlns="http://www.w3.org/2000/svg">
<g id="Group 16">
<path id="Subtract" fill-rule="evenodd" clip-rule="evenodd" d="M41.5 83C64.4198 83 83 64.4198 83 41.5C83 18.5802 64.4198 0 41.5 0C18.5802 0 0 18.5802 0 41.5C0 64.4198 18.5802 83 41.5 83ZM42 17C42.7802 16.9997 43.5357 17.2868 44.1351 17.8112C44.7344 18.3357 45.1396 19.0642 45.28 19.87L45.3333 20.5V45C45.3349 45.8746 45.0245 46.7182 44.4633 47.3645C43.9021 48.0108 43.1308 48.4131 42.3012 48.4921C41.4716 48.5712 40.6439 48.3212 39.9811 47.7915C39.3183 47.2617 38.8684 46.4906 38.72 45.63L38.6667 45V20.5C38.6667 19.5717 39.0179 18.6815 39.643 18.0251C40.2681 17.3687 41.1159 17 42 17ZM42 55.5C43.3261 55.5 44.5978 56.0531 45.5355 57.0377C46.4732 58.0223 47 59.3576 47 60.75C47 62.1424 46.4732 63.4777 45.5355 64.4623C44.5978 65.4469 43.3261 66 42 66C40.6739 66 39.4021 65.4469 38.4645 64.4623C37.5268 63.4777 37 62.1424 37 60.75C37 59.3576 37.5268 58.0223 38.4645 57.0377C39.4021 56.0531 40.6739 55.5 42 55.5Z" fill="#FF5757"/>
</g>
</svg>
