<svg width="20" height="21" viewBox="0 0 20 21" fill="none" xmlns="http://www.w3.org/2000/svg">
<g id="Home Copy">
<path id="Stroke 2" d="M4.84249 4.81822C5.10967 4.60248 5.38251 4.37006 5.6642 4.13012C6.20829 3.66664 6.78535 3.17509 7.41816 2.7214C8.38914 2.02526 9.25773 1.60273 9.9579 1.60273C10.6606 1.60273 11.5415 2.0254 12.5254 2.72052C13.1871 3.1879 13.7989 3.704 14.3692 4.18504C14.6314 4.40622 14.8848 4.61998 15.1303 4.81818C15.5428 5.20026 15.9131 5.52866 16.2422 5.81867C16.2884 5.85942 16.3336 5.89928 16.378 5.93833C16.6572 6.18426 16.8998 6.39791 17.1177 6.59906C17.6218 7.06443 17.9363 7.41247 18.1581 7.79962C18.6028 8.57597 18.7719 9.66971 18.7719 12.5157C18.7719 14.5708 18.6488 16.0416 18.3724 17.1055C18.1013 18.1484 17.6995 18.7387 17.1725 19.117C16.6201 19.5135 15.8267 19.753 14.6193 19.8775C13.4133 20.0018 11.9078 20.0027 9.9859 20.0027C8.06397 20.0027 6.55855 20.0018 5.35248 19.8775C4.14512 19.753 3.35175 19.5135 2.79928 19.117C2.27234 18.7387 1.87046 18.1484 1.59945 17.1055C1.32301 16.0416 1.1999 14.5708 1.1999 12.5157C1.1999 9.6698 1.36924 8.57608 1.81413 7.79976C2.03602 7.41257 2.35071 7.0645 2.85489 6.5991C3.0726 6.39814 3.31498 6.1847 3.59393 5.93906C3.63853 5.89979 3.68407 5.85969 3.73059 5.81869C4.05961 5.52869 4.42998 5.20029 4.84249 4.81822Z" stroke="black" stroke-width="1.6" stroke-linecap="round" stroke-linejoin="round"/>
<path id="Stroke 1" d="M7.07861 14.9395H12.8936" stroke="#333333" stroke-width="1.5" stroke-linecap="round" stroke-linejoin="round"/>
</g>
</svg>
