<svg width="20" height="22" viewBox="0 0 20 20" fill="none" xmlns="http://www.w3.org/2000/svg">
<path fill-rule="evenodd" clip-rule="evenodd" d="M9.04553 14.9342L9.05973 15.0939L9.06136 15.1059C9.10155 15.3255 9.2175 15.5241 9.38902 15.6671C9.56053 15.81 9.77674 15.8882 10 15.8882C10.253 15.8881 10.4957 15.7876 10.6745 15.6088C10.8534 15.4299 10.9539 15.1872 10.9539 14.9342V9.17763L10.9403 9.01796L10.9387 9.00616C10.8962 8.77159 10.7675 8.56143 10.5778 8.41704C10.3881 8.27266 10.1512 8.20453 9.91381 8.22607C9.6764 8.24761 9.45565 8.35726 9.29505 8.53342C9.1345 8.70952 9.04567 8.93958 9.04605 9.17787L9.04553 14.9342ZM9.04605 9.17787L9.05973 15.0939L9.06136 15.1059C9.0716 15.1619 9.04015 15.0539 9.06136 15.1059L9.04553 14.9342L9.04605 9.17787ZM10 15.8882C10.0524 15.8998 9.94575 15.8869 10 15.8882ZM6.17317 19.2388C7.38642 19.7413 8.68678 20 10 20C12.6522 20 15.1957 18.9464 17.0711 17.0711C18.9464 15.1957 20 12.6522 20 10C20 7.34784 18.9464 4.8043 17.0711 2.92893C15.1957 1.05357 12.6522 0 10 0C8.68678 0 7.38642 0.258659 6.17317 0.761205C4.95991 1.26375 3.85752 2.00035 2.92893 2.92893C2.00035 3.85752 1.26375 4.95991 0.761204 6.17317C0.258657 7.38642 0 8.68678 0 10C0 11.3132 0.258657 12.6136 0.761204 13.8268C1.26375 15.0401 2.00035 16.1425 2.92893 17.0711C3.85752 17.9997 4.95991 18.7362 6.17317 19.2388ZM15.722 15.722C14.2044 17.2395 12.1462 18.0921 10 18.0921C7.85384 18.0921 5.79558 17.2395 4.27802 15.722C2.76045 14.2044 1.9079 12.1462 1.9079 10C1.9079 7.85384 2.76045 5.79558 4.27802 4.27802C5.79558 2.76045 7.85384 1.9079 10 1.9079C12.1462 1.9079 14.2044 2.76045 15.722 4.27802C17.2395 5.79558 18.0921 7.85384 18.0921 10C18.0921 12.1462 17.2395 14.2044 15.722 15.722ZM9.03471 6.44227C9.29072 6.69828 9.63795 6.84211 10 6.84211C10.3621 6.84211 10.7093 6.69828 10.9653 6.44227C11.2213 6.18626 11.3651 5.83903 11.3651 5.47697C11.3651 5.11492 11.2213 4.76769 10.9653 4.51168C10.7093 4.25567 10.3621 4.11184 10 4.11184C9.63795 4.11184 9.29072 4.25567 9.03471 4.51168C8.77869 4.76769 8.63487 5.11492 8.63487 5.47697C8.63487 5.83903 8.77869 6.18626 9.03471 6.44227ZM8.76796 5.41581C8.76696 5.43613 8.76645 5.45653 8.76645 5.47697Z" fill="#1AA99C"/>
</svg>
