<svg width="18" height="24" viewBox="0 0 18 24" fill="none" xmlns="http://www.w3.org/2000/svg">
<g id="Document">
<path id="Path" d="M9.00086 4.05273C2.42034 4.05273 0.109863 6.59979 0.109863 13.8027C0.109863 21.0057 2.42034 23.5527 9.00086 23.5527C15.4792 23.5527 17.8186 21.0851 17.8902 14.137L17.8919 13.8027C17.8919 6.59936 15.582 4.05273 9.00086 4.05273Z" fill="#1AA99C"/>
<path id="Path_2" d="M8.891 5.05273C13.9282 5.05273 16.0667 6.51469 16.6255 10.9224L16.683 11.4442L16.727 11.9926C16.7332 12.0862 16.7389 12.181 16.744 12.2769L16.7685 12.8662C16.7746 13.0673 16.7785 13.273 16.7805 13.4835L16.782 13.8027C16.782 14.1256 16.7776 14.4376 16.7685 14.7392L16.744 15.3285C16.7389 15.4245 16.7332 15.5193 16.727 15.6129L16.683 16.1613L16.6255 16.683C16.0667 21.0908 13.9282 22.5527 8.891 22.5527C3.85428 22.5527 1.71546 21.0905 1.15654 16.6829L1.09899 16.1612C1.09054 16.072 1.08265 15.9817 1.07533 15.8903L1.03796 15.3285L1.0135 14.7392C1.00744 14.5381 1.00346 14.3324 1.00148 14.122L1 13.8027C1 13.4799 1.00441 13.1679 1.0135 12.8663L1.03796 12.277L1.07533 11.7151C1.08265 11.6237 1.09054 11.5335 1.09899 11.4443L1.15654 10.9226C1.70471 6.59977 3.77261 5.11006 8.60363 5.05437L8.891 5.05273Z" fill="#1AA99C"/>
<path id="Stroke 1" d="M5.88408 7.52139L5.88583 7.54228L5.88933 7.56295C5.99157 8.16797 6.5811 8.5 7.12549 8.5C7.70771 8.5 8.37549 8.10354 8.37549 7.39794V1.60206V1.58115L8.37374 1.56031L8.3669 1.47861L8.36514 1.45772L8.36165 1.43705C8.25941 0.83203 7.66987 0.5 7.12549 0.5C6.54327 0.5 5.87549 0.896459 5.87549 1.60206V7.39794V7.41885L5.87723 7.43969L5.88408 7.52139Z" fill="#1AA99C" stroke="white"/>
<path id="Stroke 1_2" d="M9.88408 7.52139L9.88583 7.54228L9.88933 7.56295C9.99157 8.16797 10.5811 8.5 11.1255 8.5C11.7077 8.5 12.3755 8.10354 12.3755 7.39794V1.60206V1.58115L12.3737 1.56031L12.3669 1.47861L12.3651 1.45772L12.3617 1.43705C12.2594 0.83203 11.6699 0.5 11.1255 0.5C10.5433 0.5 9.87549 0.896459 9.87549 1.60206V7.39794V7.41885L9.87723 7.43969L9.88408 7.52139Z" fill="#1AA99C" stroke="white"/>
<path id="Stroke 2" d="M15.9074 9.98828C16.7016 9.98828 17.3455 10.3241 17.3455 10.7383C17.3455 11.118 16.8045 11.4318 16.1026 11.4814L15.9074 11.4883H2.06356C1.26934 11.4883 0.625488 11.1525 0.625488 10.7383C0.625488 10.3586 1.1665 10.0448 1.86842 9.99513L2.06356 9.98828H15.9074Z" fill="white"/>
</g>
</svg>
