<svg width="20" height="20" viewBox="0 0 17 18" fill="none" xmlns="http://www.w3.org/2000/svg">
<path id="Combined Shape" fill-rule="evenodd" clip-rule="evenodd" d="M8.50021 0C5.73878 0 3.50021 2.23858 3.50021 5C3.50021 7.76142 5.73878 10 8.50021 10C11.2616 10 13.5002 7.76142 13.5002 5C13.5002 2.23858 11.2616 0 8.50021 0ZM8.49955 2.00003C10.1564 2.00003 11.4996 3.34317 11.4996 5.00003C11.4996 6.65688 10.1564 8.00003 8.49955 8.00003C6.8427 8.00003 5.49955 6.65688 5.49955 5.00003C5.49955 3.34317 6.8427 2.00003 8.49955 2.00003ZM16.9954 16.7831C16.8818 14.1223 14.6888 12 12 12H5L4.78311 12.0046C2.12231 12.1182 0 14.3113 0 17V19L0.00672773 19.1166C0.0644928 19.614 0.487164 20 1 20C1.55228 20 2 19.5523 2 19V17L2.00509 16.8237C2.09634 15.2489 3.40232 14 5 14H12L12.1763 14.0051C13.7511 14.0963 15 15.4023 15 17V19L15.0067 19.1166C15.0645 19.614 15.4872 20 16 20C16.5523 20 17 19.5523 17 19V17L16.9954 16.7831Z" fill="#1AA99C"/>
</svg>
