
<svg width="24px" height="24px" viewBox="0 0 24 24" version="1.1" xmlns="http://www.w3.org/2000/svg" xmlns:xlink="http://www.w3.org/1999/xlink">
    <title>D9CFF239-35D3-4251-9F2B-62D0BD8EC067</title>
    <g id="Page-1" stroke="none" stroke-width="1" fill="none" fill-rule="evenodd">
        <g id="Physician-Copy-34" transform="translate(-292.000000, -780.000000)">
            <g id="Group-682" transform="translate(22.000000, 763.000000)">
                <g id="Group-681" transform="translate(51.000000, 17.000000)">
                    <g id="Iconly/Curved/Document" transform="translate(219.000000, 0.000000)">
                        <path d="M0,0 L24,0 L24,24 L0,24 L0,0 Z" id="Iconly/Curved/Document-(Background)"></path>
                        <g id="Document" transform="translate(3.609863, 2.750000)" stroke="#C6CEDD" stroke-dasharray="0,0" stroke-linecap="round" stroke-linejoin="round">
                            <path d="M8.39099979,18.5 C14.6849999,18.5 16.7819996,16.1869998 16.7819996,9.25 C16.7819996,2.3130002 14.6849999,0 8.39099979,0 C2.09799957,0 0,2.3130002 0,9.25 C0,16.1869998 2.09799957,18.5 8.39099979,18.5 Z" id="Stroke-4"></path>
                            <line x1="11.9856248" y1="12.9472656" x2="4.765625" y2="12.9472656" id="Stroke-1" stroke-width="1.5"></line>
                            <line x1="11.9856248" y1="9.18554688" x2="4.765625" y2="9.18554688" id="Stroke-2" stroke-width="1.5"></line>
                            <line x1="7.5211134" y1="5.42773438" x2="4.76611328" y2="5.42773438" id="Stroke-3" stroke-width="1.5"></line>
                        </g>
                    </g>
                </g>
            </g>
        </g>
    </g>
</svg>